<svg width="385" height="305" fill="none" xmlns="http://www.w3.org/2000/svg"><path d="M184.5 127.5c-96 0-160 91.5-164.5 152.5V11h344.5v269c-17.5-98.5-84-152.5-180-152.5z" fill="#000"/><g filter="url(#filter0_ddd_1082_3204)"><path fill-rule="evenodd" clip-rule="evenodd" d="M165 20.86v37.031l-17.213 11.325H165v58.326l-3.952.847c-9.548 2.111-15.087 3.893-21.578 5.89L133 136.27V40.14l32-19.28zm-22 39.535l12-7.895v-14l-12 6.826v15.069zm0 19.421v42.959c3.882-1.137 8.049-2.295 12-3.256V79.816h-12zM53.002 22.32v84.398l-10 6.282V43.68L30 54.523V216.27c3.779-8.082 8.34-16.504 13.002-22.25v-58.393l10-5.627v68.5s-2.284 2.673-3.502 4.5c-11.771 15.695-20.56 34.468-25 53.5-2.8 12-4.5 24.5-4.5 24.5V49.841L53.002 22.32zM59 26.5L69 19v143.793c.712-.622 1.424-1.235 2.136-1.844.783-.67 1.564-1.331 2.345-1.994 2.306-1.955 4.627-3.922 7.095-6.155v-44.3l10-6V159l-5.076 4c-7.5 6.5-12.019 10.5-19 18-3.5 4-7.5 9.5-7.5 9.5v-164zm68-7.5v120.5l-3.5 1.5c-7.926 3.342-13.5 6.265-19.88 10.024L96 156V33.5l10-5.341v109.298c3.497-1.799 7.107-3.452 11-5.133V24l10-5z" fill="#fff"/></g><g filter="url(#filter1_ddd_1082_3204)"><path fill-rule="evenodd" clip-rule="evenodd" d="M304 45.266l26.17-16.528V16.51L294 39.754v119.717l1.963 1.501c8.311 6.356 14.574 11.653 23.829 21.883L328.5 194V42.639l-20.37 10.969v10.374l10.37-4.6v107.672c-4.98-4.859-9.458-8.6-14.5-12.514V45.266zm-115-1.01L213.5 29V17.5L179 38.744V127.5s7.5-.5 10-.5c5.5 0 10 0 18.977.973l5.523.581V40.749l-20.37 10.969V63l10.37-5.509v60.003c-4.759-.4-8.151-.476-14.5-.491V44.256zm62-24.005v117.344l-6.682-2.386c-6.64-2.372-15.343-4.315-20.299-5.306l-4.019-.804V39.256l31-19.005zm114 5.11L364.5 141s-2.5-1.095-6.5-2.595c-4-1.5-14.5-4.905-18-5.905-1.75-.5-6-1.5-6-1.5V42.749l31-17.388zm-76.5-2v40.667l-10 4.472h10V156l-10-6V78.5h-12v65l-10-4.5V44.153l32-20.792zm-22 40.883V49.34l12-6.7v15.332l-12 6.272zM230 44.134v76.806c3.231.709 7.134 1.64 11 2.737V38.744l-11 5.39zm114 3.493v75.313c3.231.709 7.134 1.64 11 2.737V42.749l-11 4.878zM334 136.5c6 1.5 9.881 3.095 9.881 3.095L355 189.951V143s7 2.5 10 4v134s-4-23-6-29.5-5-12.5-5-12.5l-10-52.451V215.5L334 200v-63.5z" fill="#fff"/></g><defs><filter id="filter0_ddd_1082_3204" x="0" y="3" width="185" height="302" filterUnits="userSpaceOnUse" color-interpolation-filters="sRGB"><feFlood flood-opacity="0" result="BackgroundImageFix"/><feColorMatrix in="SourceAlpha" values="0 0 0 0 0 0 0 0 0 0 0 0 0 0 0 0 0 0 127 0" result="hardAlpha"/><feOffset/><feGaussianBlur stdDeviation="4"/><feComposite in2="hardAlpha" operator="out"/><feColorMatrix values="0 0 0 0 1 0 0 0 0 1 0 0 0 0 1 0 0 0 0.65 0"/><feBlend in2="BackgroundImageFix" result="effect1_dropShadow_1082_3204"/><feColorMatrix in="SourceAlpha" values="0 0 0 0 0 0 0 0 0 0 0 0 0 0 0 0 0 0 127 0" result="hardAlpha"/><feOffset/><feGaussianBlur stdDeviation="7.5"/><feComposite in2="hardAlpha" operator="out"/><feColorMatrix values="0 0 0 0 1 0 0 0 0 1 0 0 0 0 1 0 0 0 0.3 0"/><feBlend in2="effect1_dropShadow_1082_3204" result="effect2_dropShadow_1082_3204"/><feColorMatrix in="SourceAlpha" values="0 0 0 0 0 0 0 0 0 0 0 0 0 0 0 0 0 0 127 0" result="hardAlpha"/><feOffset dy="4"/><feGaussianBlur stdDeviation="10"/><feComposite in2="hardAlpha" operator="out"/><feColorMatrix values="0 0 0 0 1 0 0 0 0 1 0 0 0 0 1 0 0 0 0.2 0"/><feBlend in2="effect2_dropShadow_1082_3204" result="effect3_dropShadow_1082_3204"/><feBlend in="SourceGraphic" in2="effect3_dropShadow_1082_3204" result="shape"/></filter><filter id="filter1_ddd_1082_3204" x="159" y=".51" width="226" height="304.49" filterUnits="userSpaceOnUse" color-interpolation-filters="sRGB"><feFlood flood-opacity="0" result="BackgroundImageFix"/><feColorMatrix in="SourceAlpha" values="0 0 0 0 0 0 0 0 0 0 0 0 0 0 0 0 0 0 127 0" result="hardAlpha"/><feOffset/><feGaussianBlur stdDeviation="4"/><feComposite in2="hardAlpha" operator="out"/><feColorMatrix values="0 0 0 0 1 0 0 0 0 1 0 0 0 0 1 0 0 0 0.65 0"/><feBlend in2="BackgroundImageFix" result="effect1_dropShadow_1082_3204"/><feColorMatrix in="SourceAlpha" values="0 0 0 0 0 0 0 0 0 0 0 0 0 0 0 0 0 0 127 0" result="hardAlpha"/><feOffset/><feGaussianBlur stdDeviation="7.5"/><feComposite in2="hardAlpha" operator="out"/><feColorMatrix values="0 0 0 0 1 0 0 0 0 1 0 0 0 0 1 0 0 0 0.3 0"/><feBlend in2="effect1_dropShadow_1082_3204" result="effect2_dropShadow_1082_3204"/><feColorMatrix in="SourceAlpha" values="0 0 0 0 0 0 0 0 0 0 0 0 0 0 0 0 0 0 127 0" result="hardAlpha"/><feOffset dy="4"/><feGaussianBlur stdDeviation="10"/><feComposite in2="hardAlpha" operator="out"/><feColorMatrix values="0 0 0 0 1 0 0 0 0 1 0 0 0 0 1 0 0 0 0.2 0"/><feBlend in2="effect2_dropShadow_1082_3204" result="effect3_dropShadow_1082_3204"/><feBlend in="SourceGraphic" in2="effect3_dropShadow_1082_3204" result="shape"/></filter></defs></svg>