<svg width="12" height="12" fill="none" xmlns="http://www.w3.org/2000/svg"><path fill-rule="evenodd" clip-rule="evenodd" d="M11.287 8.84A5.967 5.967 0 0012 6a5.981 5.981 0 00-1.027-3.359l-.996.413.46 1.109c.233.564.363 1.184.363 1.837s-.13 1.273-.364 1.837l-.46 1.109.997.413a6 6 0 00.314-.52zm-1.928 2.133l-.413-.996-1.109.46A4.782 4.782 0 016 10.8c-.653 0-1.273-.13-1.837-.364l-1.109-.46-.413.997a6 6 0 001.062.572A5.981 5.981 0 006 12a5.981 5.981 0 003.359-1.027zM1.027 9.359l.996-.413-.46-1.109A4.782 4.782 0 011.2 6c0-.653.13-1.273.364-1.837l.46-1.109-.997-.413a5.997 5.997 0 00-.572 1.062A5.982 5.982 0 000 6a5.982 5.982 0 001.027 3.359zm1.614-8.332l.413.996 1.109-.46A4.782 4.782 0 016 1.2c.653 0 1.273.13 1.837.364l1.109.46.413-.997A5.997 5.997 0 008.297.455 5.982 5.982 0 006 0a5.982 5.982 0 00-3.359 1.027z" fill="#fff"/></svg>