<svg width="16" height="12" fill="none" xmlns="http://www.w3.org/2000/svg"><path fill-rule="evenodd" clip-rule="evenodd" d="M0 6.545v-1.09c.377 0 .757-.222 1.23-.705.31-.319.611-.693.947-1.113.185-.23.382-.476.597-.732C3.943 1.51 5.497 0 8 0s4.057 1.51 5.226 2.905c.215.256.412.501.597.732.336.42.636.794.947 1.113.473.483.853.705 1.23.705v1.09c-.377 0-.757.222-1.23.705-.31.319-.611.693-.947 1.113-.185.23-.382.476-.597.732C12.057 10.49 10.503 12 8 12s-4.057-1.51-5.226-2.905a39.897 39.897 0 01-.597-.732c-.336-.42-.636-.794-.948-1.113C.757 6.767.377 6.545 0 6.545zM14.588 6a5.024 5.024 0 01-.501-.454c-.346-.354-.704-.8-1.064-1.248a40.554 40.554 0 00-.535-.657C11.371 2.308 10.068 1.09 8 1.09c-2.069 0-3.371 1.217-4.488 2.55-.178.212-.357.435-.535.657-.36.448-.718.894-1.064 1.248A5.028 5.028 0 011.412 6c.176.137.343.292.501.454.346.354.704.8 1.064 1.248.178.222.357.445.535.657C4.629 9.692 5.932 10.91 8 10.91c2.069 0 3.371-1.217 4.488-2.55.178-.212.357-.435.535-.657.36-.448.718-.894 1.064-1.248.158-.162.325-.317.501-.454z" fill="#fff"/><path fill-rule="evenodd" clip-rule="evenodd" d="M8 3.143a2.857 2.857 0 100 5.714 2.857 2.857 0 000-5.714zM4 6a4 4 0 118 0 4 4 0 01-8 0z" fill="#fff"/></svg>