<svg width="12" height="12" fill="none" xmlns="http://www.w3.org/2000/svg"><path fill-rule="evenodd" clip-rule="evenodd" d="M2.1 1.196V0H.9v.857H0V2h1.245c.402.4 1.16 1.126 2.36 1.412 1.629.387 2.884-.525 3.747-1.164l.085-.063c.431-.319.749-.554 1.039-.676a.719.719 0 01.306-.072.42.42 0 01.233.092c.231.165.314.409.182.753-.142.368-.536.812-1.215 1.135-.665.317-1.527.507-2.467.657a53.51 53.51 0 01-1.083.156c-.578.08-1.156.159-1.647.255a6.47 6.47 0 00-1.164.323c-.343.14-.683.336-.918.637C.167 6.13.407 6.968 1 7.817l.012.017.013.017c.388.475.837.79 1.346.939.507.148 1.013.113 1.488-.014.915-.246 1.835-.874 2.638-1.442l.258-.183c.746-.53 1.4-.994 1.992-1.235.32-.129.563-.167.751-.144.164.02.339.092.528.295.157.217.178.363.168.458-.011.108-.07.245-.234.42-.346.37-.977.722-1.731 1.099l-.352.173c-.606.298-1.253.616-1.683.945-.255.196-.542.474-.634.848-.107.435.084.817.39 1.108.356.34.8.402 1.185.352.36-.047.716-.195 1.007-.334.151-.072.3-.149.437-.22l.004-.002c.139-.071.263-.135.38-.19.118-.057.215-.098.294-.124a.761.761 0 01.097-.026c.01.008.027.022.05.045.045.044.094.102.165.188l.021.025c.063.075.139.167.223.259.193.21.45.445.817.623.37.18.816.286 1.369.286v-1.143c-.385 0-.641-.072-.823-.16a1.517 1.517 0 01-.46-.359 5.525 5.525 0 01-.185-.216l-.02-.025a3.864 3.864 0 00-.24-.27c-.186-.183-.473-.398-.897-.398-.346 0-.697.153-.948.272-.135.064-.275.136-.406.204l-.013.007c-.14.072-.271.14-.401.202-.271.129-.479.204-.633.224-.128.017-.156-.01-.174-.027a.545.545 0 01-.057-.062.945.945 0 01.206-.197c.325-.25.832-.5 1.439-.799l.399-.197c.722-.36 1.555-.8 2.07-1.352.268-.286.488-.641.532-1.067.045-.435-.103-.858-.4-1.255l-.016-.02-.017-.02c-.367-.407-.808-.643-1.305-.704-.478-.058-.947.055-1.372.227-.736.298-1.516.853-2.232 1.364l-.264.187c-.837.592-1.582 1.08-2.248 1.26-.317.084-.58.088-.811.021-.224-.065-.474-.214-.737-.532-.516-.744-.372-.973-.323-1.036.058-.074.181-.17.427-.269a5.33 5.33 0 01.936-.256c.468-.091.97-.16 1.511-.234.373-.05.763-.104 1.174-.17.958-.151 1.971-.363 2.806-.76.886-.422 1.535-1.063 1.805-1.765.28-.727.143-1.539-.588-2.06a1.652 1.652 0 00-.896-.32 1.951 1.951 0 00-.85.17c-.432.182-.868.505-1.255.793l-.118.087c-.917.679-1.725 1.195-2.72.958-.87-.207-1.4-.717-1.796-1.107zm4.627 9.027s0 .003.004.008l-.004-.008z" fill="#fff"/></svg>