<svg width="12" height="14" fill="none" xmlns="http://www.w3.org/2000/svg"><path fill-rule="evenodd" clip-rule="evenodd" d="M5.923 1.068c-2.446 0-4.846 1.731-4.846 4.805 0 1.523.803 2.96 1.888 4.203.96 1.1 2.096 2 2.958 2.617.862-.617 1.999-1.518 2.958-2.617 1.085-1.244 1.888-2.68 1.888-4.203 0-3.074-2.4-4.805-4.846-4.805zM0 5.873C0 2.113 2.984 0 5.923 0s5.923 2.113 5.923 5.873c0 1.895-.992 3.573-2.15 4.901-1.165 1.335-2.553 2.38-3.464 3.012L5.923 14l-.309-.214c-.91-.633-2.299-1.677-3.464-3.012C.992 9.446 0 7.768 0 5.874z" fill="#fff"/><path fill-rule="evenodd" clip-rule="evenodd" d="M5.923 2.982l2.535 2.514-.762.755-1.234-1.224v8.321H5.385V5.027L4.15 6.25l-.762-.755 2.535-2.514z" fill="#fff"/></svg>