<svg width="234" height="100" fill="none" xmlns="http://www.w3.org/2000/svg"><path d="M117 0l1.781 11.266c2.286 14.467 17.806 22.702 31.068 16.485l14.756-6.918-2.041 1.588c-10.303 8.011-5.007 24.519 8.033 25.04L234 50l-63.403 2.538c-13.04.522-18.336 17.03-8.033 25.041l2.041 1.588-14.756-6.918c-13.262-6.217-28.782 2.018-31.068 16.485L117 100l-1.781-11.266c-2.286-14.467-17.806-22.702-31.068-16.485l-14.756 6.918 2.041-1.588c10.303-8.011 5.007-24.519-8.033-25.04L0 50l63.403-2.538c13.04-.522 18.336-17.03 8.033-25.041l-2.041-1.588 14.756 6.918c13.262 6.217 28.782-2.018 31.068-16.485L117 0z" fill="#fff"/></svg>