<svg width="12" height="12" viewBox="0 0 12 12" fill="none" xmlns="http://www.w3.org/2000/svg">
<path fill-rule="evenodd" clip-rule="evenodd" d="M11.287 8.83938C11.3816 8.66357 11.4677 8.4825 11.5447 8.29673C11.8381 7.58928 12 6.81355 12 6C12 5.18645 11.8381 4.41072 11.5447 3.70327C11.4677 3.5175 11.3816 3.33643 11.287 3.16062C11.1908 2.98192 11.0858 2.80866 10.9726 2.64142L9.97658 3.05447L10.4362 4.16294C10.6702 4.72723 10.8 5.34695 10.8 6C10.8 6.65305 10.6702 7.27277 10.4362 7.83706L9.97658 8.94553L10.9726 9.35858C11.0858 9.19134 11.1908 9.01808 11.287 8.83938ZM9.35858 10.9726L8.94553 9.97658L7.83706 10.4362C7.27277 10.6702 6.65305 10.8 6 10.8C5.34695 10.8 4.72723 10.6702 4.16294 10.4362L3.05447 9.97658L2.64142 10.9726C2.80866 11.0858 2.98192 11.1908 3.16062 11.287C3.33643 11.3816 3.5175 11.4677 3.70327 11.5447C4.41072 11.8381 5.18645 12 6 12C6.81355 12 7.58928 11.8381 8.29673 11.5447C8.4825 11.4677 8.66357 11.3816 8.83938 11.287C9.01808 11.1908 9.19134 11.0858 9.35858 10.9726ZM1.02736 9.35858L2.02342 8.94553L1.56375 7.83706C1.32975 7.27277 1.2 6.65305 1.2 6C1.2 5.34695 1.32975 4.72723 1.56375 4.16294L2.02342 3.05447L1.02736 2.64142C0.914179 2.80866 0.809213 2.98192 0.713043 3.16062C0.618426 3.33643 0.532322 3.5175 0.455283 3.70327C0.161917 4.41072 0 5.18645 0 6C0 6.81355 0.161917 7.58928 0.455283 8.29673C0.532322 8.48251 0.618426 8.66357 0.713043 8.83938C0.809214 9.01808 0.914179 9.19134 1.02736 9.35858ZM2.64142 1.02736L3.05447 2.02342L4.16294 1.56375C4.72723 1.32975 5.34695 1.2 6 1.2C6.65305 1.2 7.27277 1.32975 7.83706 1.56375L8.94553 2.02342L9.35858 1.02736C9.19134 0.914179 9.01808 0.809213 8.83938 0.713043C8.66357 0.618426 8.4825 0.532322 8.29673 0.455283C7.58928 0.161917 6.81355 0 6 0C5.18645 0 4.41072 0.161917 3.70327 0.455283C3.5175 0.532322 3.33643 0.618426 3.16062 0.713043C2.98192 0.809213 2.80866 0.914179 2.64142 1.02736Z" fill="white"/>
</svg>
