<svg width="16" height="12" viewBox="0 0 16 12" fill="none" xmlns="http://www.w3.org/2000/svg">
<path fill-rule="evenodd" clip-rule="evenodd" d="M0 6.54545V5.45455C0.37705 5.45455 0.757232 5.23276 1.22946 4.7498C1.54088 4.43129 1.84096 4.0569 2.17714 3.63744C2.36242 3.40627 2.55868 3.1614 2.77384 2.90467C3.94278 1.50991 5.4971 0 8 0C10.5029 0 12.0572 1.50991 13.2262 2.90467C13.4413 3.1614 13.6376 3.40626 13.8229 3.63744C14.159 4.0569 14.4591 4.43129 14.7705 4.7498C15.2428 5.23276 15.623 5.45455 16 5.45455V6.54545C15.623 6.54545 15.2428 6.76724 14.7705 7.2502C14.4591 7.56871 14.159 7.9431 13.8229 8.36256C13.6376 8.59373 13.4413 8.8386 13.2262 9.09533C12.0572 10.4901 10.5029 12 8 12C5.4971 12 3.94278 10.4901 2.77384 9.09533C2.55868 8.8386 2.36242 8.59373 2.17714 8.36256C1.84096 7.9431 1.54088 7.56871 1.22946 7.2502C0.757232 6.76724 0.37705 6.54545 0 6.54545ZM14.5884 6C14.4118 5.8626 14.2451 5.70773 14.0866 5.54566C13.7408 5.19205 13.3829 4.74609 13.0229 4.29769C12.8447 4.07568 12.666 3.85308 12.4881 3.64078C11.3714 2.30827 10.0685 1.09091 8 1.09091C5.93147 1.09091 4.62864 2.30827 3.51187 3.64078C3.33395 3.85307 3.15527 4.07568 2.97707 4.29768C2.61713 4.74608 2.25915 5.19204 1.9134 5.54566C1.75493 5.70773 1.58817 5.8626 1.41164 6C1.58817 6.1374 1.75493 6.29228 1.9134 6.45434C2.25915 6.80796 2.61713 7.25392 2.97707 7.70232C3.15527 7.92433 3.33395 8.14693 3.51187 8.35922C4.62864 9.69173 5.93147 10.9091 8 10.9091C10.0685 10.9091 11.3714 9.69173 12.4881 8.35922C12.666 8.14692 12.8447 7.92432 13.0229 7.70232C13.3829 7.25391 13.7408 6.80796 14.0866 6.45434C14.2451 6.29228 14.4118 6.1374 14.5884 6Z" fill="white"/>
<path fill-rule="evenodd" clip-rule="evenodd" d="M8 3.14286C6.42204 3.14286 5.14286 4.42204 5.14286 6C5.14286 7.57796 6.42204 8.85714 8 8.85714C9.57796 8.85714 10.8571 7.57796 10.8571 6C10.8571 4.42204 9.57796 3.14286 8 3.14286ZM4 6C4 3.79086 5.79086 2 8 2C10.2091 2 12 3.79086 12 6C12 8.20914 10.2091 10 8 10C5.79086 10 4 8.20914 4 6Z" fill="white"/>
</svg>
