<svg width="12" height="14" viewBox="0 0 12 14" fill="none" xmlns="http://www.w3.org/2000/svg">
<path fill-rule="evenodd" clip-rule="evenodd" d="M5.92308 1.06786C3.4773 1.06786 1.07692 2.79898 1.07692 5.87323C1.07692 7.39605 1.88001 8.83207 2.96493 10.0757C3.92417 11.1752 5.06142 12.0757 5.92308 12.6931C6.78474 12.0757 7.92198 11.1752 8.88123 10.0757C9.96614 8.83207 10.7692 7.39605 10.7692 5.87323C10.7692 2.79898 8.36886 1.06786 5.92308 1.06786ZM0 5.87323C0 2.11318 2.98424 0 5.92308 0C8.86191 0 11.8462 2.11318 11.8462 5.87323C11.8462 7.76757 10.8544 9.44615 9.6957 10.7743C8.53104 12.1093 7.14286 13.1533 6.23186 13.7857L5.92308 14L5.61429 13.7857C4.70329 13.1533 3.31511 12.1093 2.15046 10.7743C0.991782 9.44615 0 7.76757 0 5.87323Z" fill="white"/>
<path fill-rule="evenodd" clip-rule="evenodd" d="M5.92308 2.98242L8.45767 5.49569L7.69617 6.25078L6.46154 5.02653V13.3483H5.38461V5.02653L4.14998 6.25078L3.38848 5.49569L5.92308 2.98242Z" fill="white"/>
</svg>
