<svg width="234" height="100" viewBox="0 0 234 100" fill="none" xmlns="http://www.w3.org/2000/svg">
<path d="M117 0L118.781 11.2657C121.067 25.7327 136.587 33.9677 149.849 27.7508L164.605 20.8333L162.564 22.4208C152.261 30.4321 157.557 46.9396 170.597 47.4617L234 50L170.597 52.5383C157.557 53.0604 152.261 69.5679 162.564 77.5792L164.605 79.1667L149.849 72.2492C136.587 66.0323 121.067 74.2673 118.781 88.7343L117 100L115.219 88.7343C112.933 74.2673 97.4127 66.0323 84.151 72.2492L69.3948 79.1667L71.4364 77.5792C81.7394 69.5679 76.4434 53.0604 63.4027 52.5383L0 50L63.4027 47.4617C76.4434 46.9396 81.7394 30.4321 71.4364 22.4208L69.3948 20.8333L84.151 27.7508C97.4127 33.9677 112.933 25.7327 115.219 11.2657L117 0Z" fill="white"/>
</svg>
